<svg xmlns="http://www.w3.org/2000/svg" viewBox="0 0 24 24" fill="currentColor">
    <path d="M12 4.5a1.5 1.5 0 100-3 1.5 1.5 0 000 3zm0 18a1.5 1.5 0 100-3 1.5 1.5 0 000 3zm9-9a1.5 1.5 0 100-3 1.5 1.5 0 000 3zm-18 0a1.5 1.5 0 100-3 1.5 1.5 0 000 3zm15.364 6.364a1.5 1.5 0 102.121-2.121 1.5 1.5 0 00-2.121 2.121zm-12.728 0a1.5 1.5 0 102.121-2.121 1.5 1.5 0 00-2.121 2.121zm12.728-12.728a1.5 1.5 0 102.121-2.121 1.5 1.5 0 00-2.121 2.121zm-12.728 0a1.5 1.5 0 102.121-2.121 1.5 1.5 0 00-2.121 2.121zM12 8.25a3.75 3.75 0 100 7.5 3.75 3.75 0 000-7.5z" />
</svg>